<svg version="1.2" xmlns="http://www.w3.org/2000/svg" viewBox="0 0 35 31" width="35" height="31"><style>.a{fill:#fff}</style><path class="a" d="m2.6 0.4h29.8v4.9h-29.8z"/><path class="a" d="m32.6 5.3c-1.4 0-2.5-1.1-2.5-2.5 0-1.3 1.1-2.4 2.5-2.4 1.3 0 2.4 1.1 2.4 2.4 0 1.4-1.1 2.5-2.4 2.5z"/><path class="a" d="m2.4 5.3c-1.3 0-2.4-1.1-2.4-2.5 0-1.3 1.1-2.4 2.4-2.4 1.4 0 2.5 1.1 2.5 2.4 0 1.4-1.1 2.5-2.5 2.5z"/><path class="a" d="m2.6 12.9h29.8v4.9h-29.8z"/><path class="a" d="m32.6 17.8c-1.4 0-2.5-1.1-2.5-2.5 0-1.3 1.1-2.4 2.5-2.4 1.3 0 2.4 1.1 2.4 2.4 0 1.4-1.1 2.5-2.4 2.5z"/><path class="a" d="m2.4 17.8c-1.3 0-2.4-1.1-2.4-2.5 0-1.3 1.1-2.4 2.4-2.4 1.4 0 2.5 1.1 2.5 2.4 0 1.4-1.1 2.5-2.5 2.5z"/><path class="a" d="m2.6 25.4h29.8v4.9h-29.8z"/><path class="a" d="m32.6 30.3c-1.4 0-2.5-1.1-2.5-2.5 0-1.3 1.1-2.4 2.5-2.4 1.3 0 2.4 1.1 2.4 2.4 0 1.4-1.1 2.5-2.4 2.5z"/><path class="a" d="m2.4 30.3c-1.3 0-2.4-1.1-2.4-2.5 0-1.3 1.1-2.4 2.4-2.4 1.4 0 2.5 1.1 2.5 2.4 0 1.4-1.1 2.5-2.5 2.5z"/></svg>